<svg width="49" height="49" viewBox="0 0 49 49" fill="none" xmlns="http://www.w3.org/2000/svg">
<path fill-rule="evenodd" clip-rule="evenodd" d="M36.5201 45.8809C43.9408 41.6613 48.9458 33.6834 48.9458 24.5366C48.9458 10.9854 37.9603 0 24.4091 0C14.8169 0 6.51029 5.50427 2.47544 13.5266H34.0036C35.3934 13.5266 36.5201 14.6533 36.5201 16.0432V45.8809ZM31.3297 48.0837V20.919C31.3297 19.5292 30.203 18.4025 28.8131 18.4025H0.645531C0.343327 19.5766 0.125848 20.7848 0 22.0201H24.881C26.2708 22.0201 27.3975 23.1468 27.3975 24.5366V48.8931C28.745 48.7295 30.0587 48.4566 31.3297 48.0837ZM22.2071 48.9758V29.7271C22.2071 28.3372 21.0804 27.2105 19.6905 27.2105H0.0165369C0.150457 28.4462 0.376123 29.6544 0.686583 30.8281H17.8031C18.1505 30.8281 18.4322 31.1098 18.4322 31.4572V48.3401C19.6566 48.6466 20.9175 48.8611 22.2071 48.9758ZM13.5563 46.5487V40.1227C13.5563 39.6699 13.092 39.3671 12.6943 39.5835C10.7378 40.6482 9.64759 42.0886 8.97215 43.6098C10.3798 44.7505 11.9163 45.7385 13.5563 46.5487ZM5.04662 39.6095C4.09906 38.3941 3.26345 37.087 2.55528 35.7039H7.50558C8.15513 35.7039 8.39765 36.603 7.86231 36.9709C6.70388 37.7668 5.77824 38.6048 5.04662 39.6095Z" fill="#FFD700"/>
</svg>
