<svg width="40" height="40" viewBox="0 0 40 40" fill="none" xmlns="http://www.w3.org/2000/svg">
<rect width="40" height="40" rx="10" fill="#2ECC71"/>
<path d="M19.9747 11.6665C15.3747 11.6665 11.6414 15.3998 11.6414 19.9998C11.6414 24.5998 15.3747 28.3332 19.9747 28.3332C24.5747 28.3332 28.308 24.5998 28.308 19.9998C28.308 15.3998 24.583 11.6665 19.9747 11.6665ZM24.4997 23.6915C23.4747 25.1665 21.7914 26.0415 19.9997 26.0415C18.208 26.0415 16.5247 25.1665 15.4997 23.6915C15.2997 23.4082 15.3747 23.0165 15.658 22.8248C15.9414 22.6248 16.333 22.6998 16.5247 22.9832C17.3164 24.1165 18.6164 24.7998 19.9997 24.7998C21.383 24.7998 22.683 24.1248 23.4747 22.9832C23.6747 22.6998 24.058 22.6332 24.3414 22.8248C24.633 23.0165 24.6997 23.4082 24.4997 23.6915Z" fill="white"/>
</svg>
