<svg width="25" height="24" viewBox="0 0 25 24" fill="none" xmlns="http://www.w3.org/2000/svg">
<path d="M12.5 2C9.88 2 7.75 4.13 7.75 6.75C7.75 9.32 9.76 11.4 12.38 11.49C12.46 11.48 12.54 11.48 12.6 11.49C12.62 11.49 12.63 11.49 12.65 11.49C12.66 11.49 12.66 11.49 12.67 11.49C15.23 11.4 17.24 9.32 17.25 6.75C17.25 4.13 15.12 2 12.5 2Z" fill="#98A2B3"/>
<path d="M17.58 14.1499C14.79 12.2899 10.24 12.2899 7.42996 14.1499C6.15996 14.9999 5.45996 16.1499 5.45996 17.3799C5.45996 18.6099 6.15996 19.7499 7.41996 20.5899C8.81996 21.5299 10.66 21.9999 12.5 21.9999C14.34 21.9999 16.18 21.5299 17.58 20.5899C18.84 19.7399 19.54 18.5999 19.54 17.3599C19.53 16.1299 18.84 14.9899 17.58 14.1499ZM14.5 18.1299H13.25V19.3799C13.25 19.7899 12.91 20.1299 12.5 20.1299C12.09 20.1299 11.75 19.7899 11.75 19.3799V18.1299H10.5C10.09 18.1299 9.74996 17.7899 9.74996 17.3799C9.74996 16.9699 10.09 16.6299 10.5 16.6299H11.75V15.3799C11.75 14.9699 12.09 14.6299 12.5 14.6299C12.91 14.6299 13.25 14.9699 13.25 15.3799V16.6299H14.5C14.91 16.6299 15.25 16.9699 15.25 17.3799C15.25 17.7899 14.91 18.1299 14.5 18.1299Z" fill="#98A2B3"/>
</svg>
