<svg width="16" height="14" viewBox="0 0 16 14" fill="none" xmlns="http://www.w3.org/2000/svg">
<path d="M11.1361 2.0761C9.58874 2.87356 7.89095 3.41962 6.09644 3.66057C5.41101 3.7526 4.71122 3.80015 4 3.80015C2.23269 3.80015 0.800003 5.23284 0.800003 7.00015C0.800003 8.63089 2.01982 9.97672 3.59678 10.175C3.83026 11.0852 4.16783 11.9816 4.61364 12.848C4.93088 13.4646 5.68722 13.6471 6.25411 13.3198L6.94693 12.9198C7.52811 12.5842 7.69934 11.8629 7.41782 11.3027C7.28495 11.0383 7.16548 10.7704 7.05915 10.4999C8.49943 10.7862 9.86826 11.2708 11.1361 11.9242C11.6951 10.3879 12 8.72965 12 7.00015C12 5.27064 11.6951 3.61235 11.1361 2.0761Z" fill="#2EA2E6"/>
<path d="M12.1942 1.47739C12.8442 3.19419 13.2 5.05562 13.2 7.00015C13.2 8.94468 12.8442 10.8061 12.1942 12.5229C12.1942 12.5229 12.1943 12.5229 12.1942 12.5229L12.1708 12.5847C12.0522 12.8941 12.2068 13.2411 12.5162 13.3598C12.8256 13.4784 13.1726 13.3238 13.2913 13.0144C13.3601 12.8348 13.426 12.6538 13.4888 12.4713C13.9321 11.1836 14.2233 9.82543 14.3409 8.41844C14.8516 8.15121 15.2 7.61673 15.2 7.00015C15.2 6.38357 14.8516 5.84911 14.3409 5.58187C14.2233 4.17488 13.9321 2.8167 13.4888 1.52906C13.426 1.34656 13.3601 1.16548 13.2913 0.985897C13.1726 0.6765 12.8256 0.521875 12.5162 0.640534C12.2068 0.759193 12.0522 1.1062 12.1708 1.4156L12.1942 1.47739C12.1943 1.47737 12.1942 1.47742 12.1942 1.47739Z" fill="#2EA2E6"/>
</svg>
