<svg width="15" height="16" viewBox="0 0 15 16" fill="none" xmlns="http://www.w3.org/2000/svg">
<path d="M12.2845 1.44291C12.2097 1.06897 11.8814 0.799805 11.5 0.799805C11.1187 0.799805 10.7904 1.06897 10.7156 1.44291L10.5248 2.39696C10.4614 2.71365 10.2139 2.96119 9.8972 3.02453L8.94316 3.21534C8.56922 3.29013 8.30005 3.61846 8.30005 3.9998C8.30005 4.38115 8.56922 4.70948 8.94316 4.78427L9.8972 4.97508C10.2139 5.03842 10.4614 5.28596 10.5248 5.60265L10.7156 6.5567C10.7904 6.93064 11.1187 7.1998 11.5 7.1998C11.8814 7.1998 12.2097 6.93064 12.2845 6.5567L12.4753 5.60265C12.5387 5.28596 12.7862 5.03842 13.1029 4.97508L14.0569 4.78427C14.4309 4.70948 14.7 4.38115 14.7 3.9998C14.7 3.61846 14.4309 3.29013 14.0569 3.21534L13.1029 3.02453C12.7862 2.96119 12.5387 2.71365 12.4753 2.39696L12.2845 1.44291Z" fill="white"/>
<path d="M5.059 4.54682C4.9501 4.22015 4.64439 3.9998 4.30005 3.9998C3.9557 3.9998 3.64999 4.22015 3.5411 4.54682L2.99408 6.18788C2.91446 6.42676 2.727 6.61421 2.48812 6.69384L0.847067 7.24086C0.520393 7.34975 0.300049 7.65546 0.300049 7.9998C0.300049 8.34415 0.520393 8.64986 0.847067 8.75875L2.48812 9.30577C2.727 9.3854 2.91446 9.57285 2.99408 9.81173L3.5411 11.4528C3.64999 11.7795 3.9557 11.9998 4.30005 11.9998C4.64439 11.9998 4.9501 11.7795 5.059 11.4528L5.60601 9.81173C5.68564 9.57285 5.87309 9.3854 6.11198 9.30577L7.75303 8.75875C8.0797 8.64986 8.30005 8.34415 8.30005 7.9998C8.30005 7.65546 8.0797 7.34975 7.75303 7.24086L6.11198 6.69384C5.87309 6.61421 5.68564 6.42676 5.60601 6.18788L5.059 4.54682Z" fill="white"/>
<path d="M10.659 10.9468C10.5501 10.6201 10.2444 10.3998 9.90005 10.3998C9.5557 10.3998 9.24999 10.6201 9.1411 10.9468L8.99408 11.3879C8.91446 11.6268 8.727 11.8142 8.48812 11.8938L8.04707 12.0409C7.72039 12.1497 7.50005 12.4555 7.50005 12.7998C7.50005 13.1441 7.72039 13.4499 8.04707 13.5588L8.48812 13.7058C8.727 13.7854 8.91446 13.9728 8.99408 14.2117L9.1411 14.6528C9.24999 14.9795 9.5557 15.1998 9.90005 15.1998C10.2444 15.1998 10.5501 14.9795 10.659 14.6528L10.806 14.2117C10.8856 13.9728 11.0731 13.7854 11.312 13.7058L11.753 13.5588C12.0797 13.4499 12.3 13.1441 12.3 12.7998C12.3 12.4555 12.0797 12.1497 11.753 12.0409L11.312 11.8938C11.0731 11.8142 10.8856 11.6268 10.806 11.3879L10.659 10.9468Z" fill="white"/>
</svg>
