<svg width="7" height="12" viewBox="0 0 7 12" fill="none" xmlns="http://www.w3.org/2000/svg">
<path d="M0.939983 0.219987C0.813317 0.219987 0.68665 0.266653 0.58665 0.366653C0.393317 0.559986 0.393317 0.879988 0.58665 1.07332L4.93332 5.41999C5.25332 5.73999 5.25332 6.25999 4.93332 6.57999L0.58665 10.9267C0.393317 11.12 0.393317 11.44 0.58665 11.6333C0.779984 11.8267 1.09998 11.8267 1.29332 11.6333L5.63998 7.28665C5.97998 6.94665 6.17332 6.48665 6.17332 5.99999C6.17332 5.51332 5.98665 5.05332 5.63998 4.71332L1.29332 0.366653C1.19332 0.27332 1.06665 0.219987 0.939983 0.219987Z" fill="#667085"/>
</svg>
