<svg width="20" height="20" viewBox="0 0 20 20" fill="none" xmlns="http://www.w3.org/2000/svg">
<path d="M10 18.9582C5.05833 18.9582 1.04166 14.9415 1.04166 9.99984C1.04166 5.05817 5.05833 1.0415 10 1.0415C14.9417 1.0415 18.9583 5.05817 18.9583 9.99984C18.9583 14.9415 14.9417 18.9582 10 18.9582ZM10 2.2915C5.75 2.2915 2.29166 5.74984 2.29166 9.99984C2.29166 14.2498 5.75 17.7082 10 17.7082C14.25 17.7082 17.7083 14.2498 17.7083 9.99984C17.7083 5.74984 14.25 2.2915 10 2.2915Z" fill="#E62E2E"/>
<path d="M13.0914 13.275C12.983 13.275 12.8747 13.25 12.7747 13.1833L10.1914 11.6416C9.54971 11.2583 9.07471 10.4166 9.07471 9.67497V6.2583C9.07471 5.91663 9.35804 5.6333 9.69971 5.6333C10.0414 5.6333 10.3247 5.91663 10.3247 6.2583V9.67497C10.3247 9.97497 10.5747 10.4166 10.833 10.5666L13.4164 12.1083C13.7164 12.2833 13.808 12.6666 13.633 12.9666C13.508 13.1666 13.2997 13.275 13.0914 13.275Z" fill="#E62E2E"/>
</svg>
