<svg width="16" height="16" viewBox="0 0 16 16" fill="none" xmlns="http://www.w3.org/2000/svg">
<path d="M11.4001 1.3335H8.60009C6.63348 1.3335 5.66605 2.00124 5.41024 3.60344C5.33219 4.09228 5.74453 4.50016 6.23956 4.50016H7.40009C10.2001 4.50016 11.5001 5.80016 11.5001 8.60016V9.76069C11.5001 10.2557 11.908 10.6681 12.3968 10.59C13.999 10.3342 14.6668 9.36677 14.6668 7.40016V4.60016C14.6668 2.26683 13.7334 1.3335 11.4001 1.3335Z" fill="#2ECC71"/>
<path d="M7.39992 5.3335H4.59992C2.26659 5.3335 1.33325 6.26683 1.33325 8.60016V11.4002C1.33325 13.7335 2.26659 14.6668 4.59992 14.6668H7.39992C9.73325 14.6668 10.6666 13.7335 10.6666 11.4002V8.60016C10.6666 6.26683 9.73325 5.3335 7.39992 5.3335ZM8.19325 9.10016L5.71992 11.5735C5.62659 11.6668 5.50659 11.7135 5.37992 11.7135C5.25325 11.7135 5.13325 11.6668 5.03992 11.5735L3.79992 10.3335C3.61325 10.1468 3.61325 9.84683 3.79992 9.66016C3.98659 9.4735 4.28659 9.4735 4.47325 9.66016L5.37325 10.5602L7.51325 8.42016C7.69992 8.2335 7.99992 8.2335 8.18659 8.42016C8.37325 8.60683 8.37992 8.9135 8.19325 9.10016Z" fill="#2ECC71"/>
</svg>
