<svg width="15" height="18" viewBox="0 0 15 18" fill="none" xmlns="http://www.w3.org/2000/svg">
<path fill-rule="evenodd" clip-rule="evenodd" d="M6 1.5C5.42842 1.5 4.94495 1.88416 4.79675 2.40958C4.76642 2.51709 4.75 2.63111 4.75 2.75H9.75C9.75 2.63111 9.73358 2.51709 9.70325 2.40958C9.55505 1.88416 9.07158 1.5 8.5 1.5H6ZM3.75545 1.64824C4.16259 0.820302 5.0141 0.25 6 0.25H8.5C9.4859 0.25 10.3374 0.820302 10.7446 1.64824C11.1592 1.68357 11.5721 1.72514 11.9832 1.77284C13.231 1.91766 14.125 2.98935 14.125 4.21416V15.25C14.125 16.6307 13.0057 17.75 11.625 17.75H2.875C1.49429 17.75 0.375 16.6307 0.375 15.25V4.21416C0.375 2.98935 1.26903 1.91765 2.51685 1.77284C2.92789 1.72514 3.34079 1.68357 3.75545 1.64824Z" fill="#2ECC71"/>
</svg>
