<svg width="21" height="20" viewBox="0 0 21 20" fill="none" xmlns="http://www.w3.org/2000/svg">
<path d="M10.75 1.6665C6.15834 1.6665 2.41667 5.40817 2.41667 9.99984C2.41667 14.5915 6.15834 18.3332 10.75 18.3332C15.3417 18.3332 19.0833 14.5915 19.0833 9.99984C19.0833 5.40817 15.3417 1.6665 10.75 1.6665ZM14.375 12.9748C14.2583 13.1748 14.05 13.2832 13.8333 13.2832C13.725 13.2832 13.6167 13.2582 13.5167 13.1915L10.9333 11.6498C10.2917 11.2665 9.81667 10.4248 9.81667 9.68317V6.2665C9.81667 5.92484 10.1 5.6415 10.4417 5.6415C10.7833 5.6415 11.0667 5.92484 11.0667 6.2665V9.68317C11.0667 9.98317 11.3167 10.4248 11.575 10.5748L14.1583 12.1165C14.4583 12.2915 14.5583 12.6748 14.375 12.9748Z" fill="#2ECC71"/>
</svg>
