<svg width="25" height="25" viewBox="0 0 25 25" fill="none" xmlns="http://www.w3.org/2000/svg">
<path d="M21.6103 8.86985L14.6803 3.32985C13.6103 2.46985 11.8803 2.46985 10.8203 3.31985L3.89027 8.86985C3.11027 9.48985 2.61027 10.7998 2.78027 11.7798L4.11027 19.7398C4.35027 21.1598 5.71027 22.3098 7.15027 22.3098H18.3503C19.7803 22.3098 21.1503 21.1498 21.3903 19.7398L22.7203 11.7798C22.8803 10.7998 22.3803 9.48985 21.6103 8.86985ZM12.7503 15.9998C11.3703 15.9998 10.2503 14.8798 10.2503 13.4998C10.2503 12.1198 11.3703 10.9998 12.7503 10.9998C14.1303 10.9998 15.2503 12.1198 15.2503 13.4998C15.2503 14.8798 14.1303 15.9998 12.7503 15.9998Z" fill="#101323"/>
</svg>
