<svg width="16" height="16" viewBox="0 0 16 16" fill="none" xmlns="http://www.w3.org/2000/svg">
<path d="M7.99332 0.840443C8.41332 0.840443 8.82665 0.980442 9.15332 1.26044L10.2066 2.16044C10.3133 2.25378 10.58 2.34711 10.72 2.34711H11.8866C12.8733 2.34711 13.6733 3.14711 13.6733 4.13378V5.27378C13.6733 5.41378 13.7666 5.68044 13.8533 5.78044L14.76 6.84711C15.3066 7.49378 15.3066 8.50711 14.76 9.16044L13.8533 10.2271C13.7666 10.3271 13.6733 10.5938 13.6733 10.7338V11.8671C13.6733 12.8538 12.8733 13.6538 11.8866 13.6538H10.7333C10.5933 13.6538 10.3333 13.7538 10.22 13.8471L9.16665 14.7471C8.51332 15.3004 7.49332 15.3004 6.83998 14.7471L5.78665 13.8471C5.67998 13.7538 5.40665 13.6604 5.26665 13.6604H4.13332C3.14665 13.6604 2.34665 12.8604 2.34665 11.8738V10.7404C2.34665 10.6004 2.24665 10.3404 2.15332 10.2271L1.25332 9.17378C0.693316 8.51378 0.699983 7.49378 1.25332 6.84711L2.15332 5.79378C2.24665 5.68044 2.33998 5.42044 2.33998 5.28044V4.14711C2.33998 3.16044 3.13998 2.36044 4.12665 2.36044H5.25998C5.39998 2.36044 5.65998 2.26044 5.77998 2.16711L6.83332 1.26711C7.15998 0.980442 7.57998 0.840443 7.99332 0.840443ZM11.8866 12.6538C12.32 12.6538 12.6733 12.3004 12.6733 11.8671V10.7338C12.6733 10.3538 12.8466 9.87378 13.0933 9.58044L14 8.51378C14.2266 8.24044 14.2266 7.76044 14 7.49378L13.1 6.43377C12.86 6.16044 12.68 5.66044 12.68 5.28044V4.14044C12.68 3.70711 12.3266 3.35378 11.8933 3.35378H10.7333C10.36 3.35378 9.86665 3.17377 9.57332 2.92711L8.51332 2.02044C8.23998 1.78711 7.75998 1.78711 7.48665 2.02044L6.43332 2.92044C6.13332 3.17377 5.64665 3.34711 5.27332 3.34711H4.13998C3.70665 3.34711 3.35332 3.70044 3.35332 4.13378V5.26711C3.35332 5.64044 3.17332 6.12711 2.92665 6.42711L2.01998 7.48711C1.78665 7.76044 1.78665 8.24044 2.01998 8.51378L2.91998 9.56711C3.17332 9.86711 3.34665 10.3538 3.34665 10.7271V11.8671C3.34665 12.3004 3.69998 12.6538 4.13332 12.6538H5.26665C5.64665 12.6538 6.13998 12.8338 6.43332 13.0804L7.49332 13.9871C7.76665 14.2204 8.23998 14.2204 8.51998 13.9871L9.56665 13.0804C9.86665 12.8338 10.3533 12.6538 10.7333 12.6538H11.8866Z" fill="#2EA2E6"/>
<path d="M8.00002 4.75358C8.36669 4.75358 8.66669 5.05358 8.66669 5.42025C8.66669 5.78691 8.37335 6.08691 8.00002 6.08691C7.63335 6.08691 7.33335 5.78691 7.33335 5.42025C7.33335 5.05358 7.62669 4.75358 8.00002 4.75358Z" fill="#2EA2E6"/>
<path d="M8 6.85341C8.27333 6.85341 8.5 7.08008 8.5 7.35341V10.5801C8.5 10.8534 8.27333 11.0801 8 11.0801C7.72667 11.0801 7.5 10.8534 7.5 10.5801V7.36008C7.5 7.08008 7.72 6.85341 8 6.85341Z" fill="#2EA2E6"/>
</svg>
