<svg width="13" height="10" viewBox="0 0 13 10" fill="none" xmlns="http://www.w3.org/2000/svg">
<path fill-rule="evenodd" clip-rule="evenodd" d="M0.5 5.00001C0.5 4.50296 0.902944 4.10001 1.4 4.10001H9.3655L6.7762 1.74876C6.41791 1.40425 6.40674 0.83451 6.75125 0.476215C7.09576 0.117921 7.6655 0.106749 8.0238 0.451263L12.2238 4.35126C12.4003 4.52095 12.5 4.7552 12.5 5.00001C12.5 5.24483 12.4003 5.47908 12.2238 5.64876L8.0238 9.54876C7.6655 9.89328 7.09576 9.88211 6.75125 9.52381C6.40674 9.16552 6.41791 8.59578 6.7762 8.25126L9.3655 5.90001H1.4C0.902944 5.90001 0.5 5.49707 0.5 5.00001Z" fill="white"/>
</svg>
