<svg width="25" height="25" viewBox="0 0 25 25" fill="none" xmlns="http://www.w3.org/2000/svg">
<g clip-path="url(#clip0_2982_14168)">
<path d="M17.0168 0.5C15.4873 0.5 13.9921 0.953552 12.7204 1.8033C11.4486 2.65305 10.4574 3.86083 9.87212 5.27391C9.2868 6.687 9.13365 8.24191 9.43204 9.74203C9.73044 11.2422 10.467 12.6201 11.5485 13.7016C12.63 14.7832 14.008 15.5197 15.5081 15.8181C17.0082 16.1165 18.5631 15.9633 19.9762 15.378C21.3893 14.7927 22.5971 13.8015 23.4468 12.5297C24.2966 11.258 24.7501 9.76284 24.7501 8.23333C24.7478 6.18304 23.9323 4.21738 22.4825 2.76761C21.0327 1.31783 19.0671 0.502323 17.0168 0.5ZM17.0168 14.9356C15.6912 14.9356 14.3954 14.5425 13.2932 13.806C12.191 13.0696 11.332 12.0228 10.8247 10.7982C10.3174 9.5735 10.1847 8.22591 10.4433 6.9258C10.7019 5.6257 11.3402 4.43147 12.2776 3.49415C13.2149 2.55682 14.4091 1.9185 15.7092 1.65989C17.0093 1.40128 18.3569 1.534 19.5816 2.04128C20.8063 2.54855 21.853 3.4076 22.5895 4.50977C23.3259 5.61195 23.719 6.90776 23.719 8.23333C23.717 10.0103 23.0102 11.7138 21.7538 12.9703C20.4973 14.2268 18.7937 14.9336 17.0168 14.9356Z" fill="#101323"/>
<path d="M17.7112 3.99237V2.66992H16.3222V3.99237C15.0181 4.26314 14.0833 5.271 14.0833 6.42547C14.0833 7.66224 15.019 8.4995 16.8645 8.91392C18.561 9.29474 18.561 9.86095 18.561 10.047C18.561 10.6514 17.8538 11.162 17.0167 11.162C16.1795 11.162 15.4722 10.6514 15.4722 10.047V9.91131H14.0833V10.047C14.0833 11.2015 15.0181 12.2092 16.3222 12.4799V13.7964H17.7112V12.4799C19.0152 12.2091 19.9499 11.2014 19.9499 10.047C19.9499 8.81022 19.0143 7.97298 17.1688 7.55856C15.4722 7.17774 15.4722 6.61152 15.4722 6.42547C15.4722 5.82098 16.1795 5.31029 17.0167 5.31029C17.8538 5.31029 18.561 5.82098 18.561 6.42547V6.56115H19.9499V6.42546C19.9499 5.271 19.0152 4.26314 17.7112 3.99237Z" fill="#101323"/>
<path d="M24.3481 16.1328C24.0702 15.9605 23.7542 15.8593 23.4279 15.8379C23.1017 15.8165 22.7752 15.8757 22.4772 16.0102L17.7856 18.1365C17.9201 18.3624 18.0081 18.6129 18.0445 18.8733C18.0939 19.2118 18.0534 19.5573 17.927 19.8751C17.8007 20.193 17.5928 20.472 17.3245 20.684C16.9758 20.9621 16.5431 21.1138 16.0971 21.1143C15.9911 21.1144 15.8853 21.1059 15.7807 21.0888L9.18275 20.0135C9.12564 20.0042 9.07093 19.9838 9.02173 19.9533C8.97253 19.9229 8.92981 19.883 8.89601 19.836C8.86221 19.7891 8.838 19.7359 8.82474 19.6796C8.81149 19.6233 8.80946 19.5649 8.81877 19.5078C8.82807 19.4507 8.84854 19.396 8.87899 19.3468C8.90945 19.2976 8.94929 19.2549 8.99626 19.2211C9.04322 19.1873 9.09638 19.163 9.1527 19.1498C9.20902 19.1365 9.2674 19.1345 9.32451 19.1438L15.8664 20.2099C16.1987 20.2516 16.5345 20.1658 16.806 19.9697C16.9462 19.8488 17.0532 19.694 17.1167 19.5201C17.1803 19.3461 17.1983 19.1589 17.1691 18.976C17.1398 18.7932 17.0643 18.6208 16.9497 18.4754C16.8351 18.33 16.6852 18.2163 16.5143 18.1451L11.17 15.9198C11.0331 15.8628 10.8863 15.8335 10.738 15.8335H5.45381C5.20655 15.8335 4.96618 15.915 4.76995 16.0655L3.64232 16.93V16.7466C3.64232 16.5755 3.57438 16.4115 3.45345 16.2906C3.33252 16.1696 3.1685 16.1017 2.99747 16.1017H1.39486C1.22383 16.1017 1.0598 16.1696 0.938867 16.2906C0.817933 16.4115 0.749996 16.5755 0.75 16.7466V23.0803C0.749994 23.165 0.76667 23.2489 0.799074 23.3271C0.831478 23.4054 0.878977 23.4765 0.938857 23.5363C0.998738 23.5962 1.06983 23.6437 1.14807 23.6762C1.22631 23.7086 1.31017 23.7252 1.39486 23.7253H2.99747C3.1685 23.7252 3.33253 23.6573 3.45346 23.5363C3.57439 23.4154 3.64233 23.2514 3.64232 23.0803V22.7193L11.0825 24.4085C11.5711 24.5194 12.0771 24.5297 12.5698 24.4387C13.0625 24.3478 13.5316 24.1575 13.9484 23.8794L24.3523 17.5546C24.4742 17.4801 24.5748 17.3754 24.6444 17.2506C24.714 17.1259 24.7504 16.9854 24.75 16.8425C24.7495 16.6997 24.7123 16.5593 24.6419 16.435C24.5715 16.3107 24.4703 16.2067 24.3481 16.1328Z" fill="#101323"/>
</g>
<defs>
<clipPath id="clip0_2982_14168">
<rect width="24" height="24" fill="white" transform="translate(0.75 0.5)"/>
</clipPath>
</defs>
</svg>
