<svg width="21" height="20" viewBox="0 0 21 20" fill="none" xmlns="http://www.w3.org/2000/svg">
<g clip-path="url(#clip0_3567_41811)">
<path d="M13.8056 0C12.531 0 11.285 0.37796 10.2252 1.08608C9.16543 1.79421 8.33943 2.80069 7.85166 3.97826C7.3639 5.15583 7.23628 6.45159 7.48494 7.70169C7.7336 8.95179 8.34737 10.1001 9.24864 11.0014C10.1499 11.9026 11.2982 12.5164 12.5483 12.7651C13.7984 13.0137 15.0942 12.8861 16.2717 12.3983C17.4493 11.9106 18.4558 11.0846 19.1639 10.0248C19.872 8.965 20.25 7.71904 20.25 6.44444C20.2481 4.73587 19.5685 3.09782 18.3603 1.88967C17.1522 0.681524 15.5141 0.00193565 13.8056 0ZM13.8056 12.0296C12.7009 12.0296 11.6211 11.7021 10.7026 11.0884C9.7841 10.4747 9.06823 9.60237 8.6455 8.58181C8.22277 7.56125 8.11216 6.43826 8.32767 5.35484C8.54317 4.27141 9.07511 3.27623 9.85621 2.49512C10.6373 1.71402 11.6325 1.18208 12.7159 0.966572C13.7993 0.751065 14.9223 0.86167 15.9429 1.2844C16.9635 1.70713 17.8357 2.423 18.4495 3.34148C19.0632 4.25996 19.3907 5.3398 19.3907 6.44444C19.3891 7.92522 18.8001 9.34486 17.753 10.3919C16.706 11.439 15.2863 12.028 13.8056 12.0296Z" fill="#2ECC71"/>
<path d="M14.3844 2.91014V1.80811H13.2269V2.91014C12.1401 3.13578 11.3611 3.97567 11.3611 4.93773C11.3611 5.96837 12.1409 6.66608 13.6788 7.01143C15.0925 7.32879 15.0925 7.80063 15.0925 7.95566C15.0925 8.45931 14.5032 8.88481 13.8057 8.88481C13.108 8.88481 12.5186 8.45931 12.5186 7.95566V7.84259H11.3611V7.95566C11.3611 8.91772 12.1401 9.7575 13.2269 9.9831V11.0802H14.3844V9.9831C15.4711 9.75744 16.25 8.91769 16.25 7.95566C16.25 6.92502 15.4703 6.22732 13.9324 5.88197C12.5186 5.56462 12.5186 5.09277 12.5186 4.93773C12.5186 4.43399 13.108 4.00841 13.8057 4.00841C14.5032 4.00841 15.0925 4.43399 15.0925 4.93773V5.0508H16.25V4.93772C16.25 3.97567 15.4711 3.13578 14.3844 2.91014Z" fill="#2ECC71"/>
<path d="M19.915 13.0273C19.6835 12.8837 19.4202 12.7993 19.1483 12.7815C18.8764 12.7637 18.6043 12.813 18.356 12.9251L14.4463 14.697C14.5584 14.8852 14.6318 15.094 14.6621 15.311C14.7033 15.5931 14.6695 15.881 14.5642 16.1459C14.4589 16.4107 14.2857 16.6432 14.0621 16.82C13.7715 17.0517 13.4109 17.1781 13.0392 17.1785C12.9509 17.1786 12.8627 17.1715 12.7756 17.1572L7.27729 16.2612C7.2297 16.2534 7.1841 16.2364 7.14311 16.211C7.10211 16.1856 7.06651 16.1524 7.03834 16.1133C7.01018 16.0742 6.99 16.0299 6.97895 15.9829C6.96791 15.936 6.96621 15.8873 6.97397 15.8397C6.98173 15.7922 6.99878 15.7466 7.02416 15.7056C7.04954 15.6646 7.08274 15.629 7.12188 15.6008C7.16102 15.5726 7.20532 15.5524 7.25225 15.5414C7.29919 15.5304 7.34784 15.5287 7.39543 15.5364L12.847 16.4249C13.124 16.4596 13.4038 16.3881 13.63 16.2247C13.7469 16.1239 13.836 15.9949 13.8889 15.85C13.9419 15.705 13.9569 15.549 13.9326 15.3966C13.9082 15.2442 13.8453 15.1006 13.7498 14.9794C13.6543 14.8582 13.5293 14.7635 13.3869 14.7042L8.93335 12.8498C8.81926 12.8023 8.6969 12.7778 8.57333 12.7778H4.16984C3.96379 12.7778 3.76349 12.8458 3.59996 12.9711L2.66026 13.6915V13.5387C2.66026 13.3962 2.60365 13.2595 2.50287 13.1587C2.4021 13.0579 2.26541 13.0013 2.12289 13.0013H0.78738C0.644854 13.0013 0.508168 13.0579 0.407389 13.1587C0.306611 13.2595 0.249996 13.3962 0.25 13.5387V18.8169C0.249995 18.8874 0.263892 18.9573 0.290895 19.0225C0.317899 19.0877 0.357481 19.147 0.407381 19.1969C0.457282 19.2468 0.516523 19.2864 0.581724 19.3134C0.646924 19.3404 0.716806 19.3543 0.78738 19.3543H2.12289C2.26542 19.3543 2.4021 19.2977 2.50288 19.1969C2.60366 19.0961 2.66027 18.9594 2.66027 18.8169V18.516L8.86038 19.9236C9.26754 20.0161 9.68927 20.0247 10.0999 19.9489C10.5104 19.8731 10.9013 19.7145 11.2486 19.4828L19.9186 14.2121C20.0201 14.15 20.104 14.0627 20.162 13.9588C20.22 13.8548 20.2503 13.7377 20.25 13.6187C20.2496 13.4996 20.2186 13.3827 20.1599 13.2791C20.1013 13.1755 20.0169 13.0888 19.915 13.0273Z" fill="#2ECC71"/>
</g>
<defs>
<clipPath id="clip0_3567_41811">
<rect width="20" height="20" fill="white" transform="translate(0.25)"/>
</clipPath>
</defs>
</svg>
