<svg width="21" height="20" viewBox="0 0 21 20" fill="none" xmlns="http://www.w3.org/2000/svg">
<path fill-rule="evenodd" clip-rule="evenodd" d="M4.9375 1.25C4.07456 1.25 3.375 1.94955 3.375 2.8125V17.1875C3.375 18.0504 4.07455 18.75 4.9375 18.75H15.5625C16.4254 18.75 17.125 18.0504 17.125 17.1875V10.625C17.125 8.89911 15.7259 7.5 14 7.5H12.4375C11.5746 7.5 10.875 6.80044 10.875 5.9375V4.375C10.875 2.64911 9.47589 1.25 7.75 1.25H4.9375ZM6.5 12.5C6.5 12.1548 6.77982 11.875 7.125 11.875H13.375C13.7202 11.875 14 12.1548 14 12.5C14 12.8452 13.7202 13.125 13.375 13.125H7.125C6.77982 13.125 6.5 12.8452 6.5 12.5ZM7.125 14.375C6.77982 14.375 6.5 14.6548 6.5 15C6.5 15.3452 6.77982 15.625 7.125 15.625H10.25C10.5952 15.625 10.875 15.3452 10.875 15C10.875 14.6548 10.5952 14.375 10.25 14.375H7.125Z" fill="#2ECC71"/>
<path d="M11.0593 1.51325C11.7233 2.2804 12.125 3.28079 12.125 4.375V5.9375C12.125 6.11009 12.2649 6.25 12.4375 6.25H14C15.0942 6.25 16.0946 6.6517 16.8617 7.31567C16.1219 4.48323 13.8918 2.25315 11.0593 1.51325Z" fill="#2ECC71"/>
</svg>
