<svg width="25" height="25" viewBox="0 0 25 25" fill="none" xmlns="http://www.w3.org/2000/svg">
<path fill-rule="evenodd" clip-rule="evenodd" d="M18.1571 22.9834C21.7958 20.9157 24.2501 17.0062 24.2501 12.5238C24.2501 5.88317 18.8635 0.499899 12.2188 0.499899C7.51538 0.499899 3.44231 3.19721 1.46387 7.12847H16.6669C17.4899 7.12847 18.1571 7.79563 18.1571 8.61861V22.9834ZM15.6182 24.061C15.6141 24.0165 15.612 23.9707 15.612 23.9237V11.008C15.612 10.185 14.9448 9.51783 14.1219 9.51783H0.566599C0.418417 10.0932 0.31178 10.6853 0.250073 11.2906H12.1938C13.0168 11.2906 13.6839 11.9577 13.6839 12.7807V24.4594C14.3468 24.379 14.9931 24.2447 15.6182 24.061ZM11.1388 24.4999V15.3242C11.1388 14.5013 10.4717 13.8341 9.6487 13.8341H0.258185C0.323853 14.4396 0.434509 15.0317 0.586745 15.6069H8.91535C9.1211 15.6069 9.28789 15.7737 9.28789 15.9794V24.1884C9.88826 24.3385 10.5065 24.4437 11.1388 24.4999ZM6.89706 23.3104V20.2593C6.89706 19.9912 6.62147 19.8123 6.38864 19.9451C5.48299 20.4618 4.97052 21.1474 4.64933 21.8702C5.33955 22.4292 6.09291 22.9134 6.89706 23.3104ZM2.72454 19.91C2.25996 19.3144 1.85027 18.6739 1.50305 17.9962H3.68169C4.06636 17.9962 4.21237 18.5336 3.90208 18.761C3.42769 19.1086 3.03946 19.4778 2.72454 19.91Z" fill="#101323"/>
</svg>
