<svg width="16" height="16" viewBox="0 0 16 16" fill="none" xmlns="http://www.w3.org/2000/svg">
<path d="M12.8933 9.66016L12.2267 8.5535C12.0867 8.30683 11.96 7.84016 11.96 7.56683V5.88016C11.96 4.3135 11.04 2.96016 9.71334 2.32683C9.36667 1.7135 8.72667 1.3335 7.99334 1.3335C7.26667 1.3335 6.61334 1.72683 6.26667 2.34683C4.96667 2.9935 4.06667 4.3335 4.06667 5.88016V7.56683C4.06667 7.84016 3.94001 8.30683 3.80001 8.54683L3.12667 9.66016C2.86001 10.1068 2.80001 10.6002 2.96667 11.0535C3.12667 11.5002 3.50667 11.8468 4.00001 12.0135C5.29334 12.4535 6.65334 12.6668 8.01334 12.6668C9.37334 12.6668 10.7333 12.4535 12.0267 12.0202C12.4933 11.8668 12.8533 11.5135 13.0267 11.0535C13.2 10.5935 13.1533 10.0868 12.8933 9.66016Z" fill="#2ECC71"/>
<path d="M9.88646 13.3402C9.60646 14.1135 8.86646 14.6668 7.99979 14.6668C7.47312 14.6668 6.95312 14.4535 6.58646 14.0735C6.37312 13.8735 6.21312 13.6068 6.11979 13.3335C6.20646 13.3468 6.29312 13.3535 6.38646 13.3668C6.53979 13.3868 6.69979 13.4068 6.85979 13.4202C7.23979 13.4535 7.62646 13.4735 8.01312 13.4735C8.39312 13.4735 8.77312 13.4535 9.14646 13.4202C9.28646 13.4068 9.42646 13.4002 9.55979 13.3802C9.66646 13.3668 9.77312 13.3535 9.88646 13.3402Z" fill="#2ECC71"/>
</svg>
