<svg width="25" height="25" viewBox="0 0 25 25" fill="none" xmlns="http://www.w3.org/2000/svg">
<path d="M12.25 2.5C9.63 2.5 7.5 4.63 7.5 7.25C7.5 9.82 9.51 11.9 12.13 11.99C12.21 11.98 12.29 11.98 12.35 11.99C12.37 11.99 12.38 11.99 12.4 11.99C12.41 11.99 12.41 11.99 12.42 11.99C14.98 11.9 16.99 9.82 17 7.25C17 4.63 14.87 2.5 12.25 2.5Z" fill="#101323"/>
<path d="M17.33 14.6499C14.54 12.7899 9.98996 12.7899 7.17996 14.6499C5.90996 15.4999 5.20996 16.6499 5.20996 17.8799C5.20996 19.1099 5.90996 20.2499 7.16996 21.0899C8.56996 22.0299 10.41 22.4999 12.25 22.4999C14.09 22.4999 15.93 22.0299 17.33 21.0899C18.59 20.2399 19.29 19.0999 19.29 17.8599C19.28 16.6299 18.59 15.4899 17.33 14.6499Z" fill="#101323"/>
</svg>
