<svg width="17" height="17" viewBox="0 0 17 17" fill="none" xmlns="http://www.w3.org/2000/svg">
<path d="M10.6733 15.8215H6.32665C3.05332 15.8215 1.65332 14.4215 1.65332 11.1481V11.0615C1.65332 8.10147 2.81999 6.6748 5.43332 6.42814C5.69999 6.40814 5.95332 6.60814 5.97999 6.88147C6.00665 7.1548 5.80665 7.40147 5.52665 7.42814C3.43332 7.62147 2.65332 8.60814 2.65332 11.0681V11.1548C2.65332 13.8681 3.61332 14.8281 6.32665 14.8281H10.6733C13.3867 14.8281 14.3467 13.8681 14.3467 11.1548V11.0681C14.3467 8.5948 13.5533 7.60814 11.42 7.42814C11.1467 7.40147 10.94 7.16147 10.9667 6.88814C10.9933 6.6148 11.2267 6.40814 11.5067 6.4348C14.16 6.66147 15.3467 8.0948 15.3467 11.0748V11.1615C15.3467 14.4215 13.9467 15.8215 10.6733 15.8215Z" fill="white"/>
<path d="M8.5 11.488C8.22667 11.488 8 11.2614 8 10.988V3.40137C8 3.12803 8.22667 2.90137 8.5 2.90137C8.77333 2.90137 9 3.12803 9 3.40137V10.988C9 11.2614 8.77333 11.488 8.5 11.488Z" fill="white"/>
<path d="M10.7333 5.38792C10.6066 5.38792 10.48 5.34125 10.38 5.24125L8.49998 3.36125L6.61998 5.24125C6.42664 5.43458 6.10664 5.43458 5.91331 5.24125C5.71998 5.04792 5.71998 4.72792 5.91331 4.53458L8.14664 2.30125C8.33998 2.10792 8.65998 2.10792 8.85331 2.30125L11.0866 4.53458C11.28 4.72792 11.28 5.04792 11.0866 5.24125C10.9933 5.34125 10.86 5.38792 10.7333 5.38792Z" fill="white"/>
</svg>
