<svg width="25" height="24" viewBox="0 0 25 24" fill="none" xmlns="http://www.w3.org/2000/svg">
<path d="M16.69 2H8.31C4.67 2 2.5 4.17 2.5 7.81V16.18C2.5 19.83 4.67 22 8.31 22H16.68C20.32 22 22.49 19.83 22.49 16.19V7.81C22.5 4.17 20.33 2 16.69 2ZM8.97 8.98L11.97 5.98C12.04 5.91 12.12 5.86 12.21 5.82C12.39 5.74 12.6 5.74 12.78 5.82C12.87 5.86 12.95 5.91 13.02 5.98L16.02 8.98C16.31 9.27 16.31 9.75 16.02 10.04C15.87 10.19 15.68 10.26 15.49 10.26C15.3 10.26 15.11 10.19 14.96 10.04L13.24 8.32V14.51C13.24 14.92 12.9 15.26 12.49 15.26C12.08 15.26 11.74 14.92 11.74 14.51V8.32L10.02 10.04C9.73 10.33 9.25 10.33 8.96 10.04C8.67 9.75 8.68 9.28 8.97 8.98ZM18.74 17.22C16.73 17.89 14.62 18.23 12.5 18.23C10.38 18.23 8.27 17.89 6.26 17.22C5.87 17.09 5.66 16.66 5.79 16.27C5.92 15.88 6.35 15.66 6.74 15.8C10.46 17.04 14.55 17.04 18.27 15.8C18.66 15.67 19.09 15.88 19.22 16.27C19.34 16.67 19.13 17.09 18.74 17.22Z" fill="#98A2B3"/>
</svg>
