<svg width="59" height="56" viewBox="0 0 59 56" fill="none" xmlns="http://www.w3.org/2000/svg">
<path d="M37.6839 44.3298L0.43094 55.902C-1.19087 56.402 -2.70294 54.8899 -2.20298 53.2681L9.36921 16.0151L37.6839 44.3298Z" fill="#A684DA"/>
<path d="M38.8298 43.6698C41.5442 40.9554 37.2978 32.3081 29.3452 24.3555C21.3925 16.4029 12.7452 12.1565 10.0309 14.8709C7.31652 17.5852 11.563 26.2325 19.5156 34.1851C27.4682 42.1377 36.1155 46.3842 38.8298 43.6698Z" fill="#CBB2EB"/>
<path d="M32.3423 45.9891L25.1356 48.2329C23.5382 47.6597 21.9652 46.9769 20.4165 46.1721C17.051 44.4283 13.8195 42.148 10.8076 39.3799C10.3198 38.9288 9.78328 38.4166 9.21016 37.8557C7.73467 36.3802 6.03969 34.5023 4.33252 32.2586L5.808 27.4785C8.51509 31.5513 11.4417 34.5755 13.4903 36.4534C19.2459 41.7334 25.5868 44.9404 32.3423 45.9891Z" fill="#CBB2EB"/>
<path d="M20.3073 49.7189L14.6248 51.4871C11.369 49.7677 8.24733 47.5362 5.32075 44.8535C4.83298 44.4023 4.29644 43.8902 3.72332 43.3292C3.05265 42.6586 2.3332 41.9025 1.58936 41.0611L2.97948 36.5615C4.83298 38.854 6.61332 40.6465 8.00345 41.9269C11.869 45.4632 15.9784 48.0727 20.3073 49.7189Z" fill="#CBB2EB"/>
<path d="M10.0148 52.9274L5.02738 54.476C3.24704 53.2566 1.50329 51.8665 -0.155106 50.3422C-0.43557 50.0861 -0.728229 49.8179 -1.03308 49.513L0.296075 45.2207C1.10088 46.0621 1.86911 46.7937 2.52759 47.4034C4.92983 49.6106 7.42962 51.4519 10.0148 52.9274Z" fill="#CBB2EB"/>
<path d="M19.3797 20.7344L17.6116 18.9663C20.4162 16.1616 22.0136 12.5644 22.3673 8.25985C22.6355 4.99183 22.0502 2.51643 22.038 2.49204L24.4647 1.89453C24.489 2.00428 25.1475 4.71137 24.8671 8.36959C24.489 13.2594 22.5868 17.5274 19.3797 20.7344Z" fill="#E35BAD"/>
<path d="M33.4032 36.5252L31.635 34.7571C35.0859 31.3062 39.9758 29.5624 45.768 29.7331C50.0725 29.8551 53.3405 30.9769 53.4746 31.0257L52.6576 33.3791L53.06 32.1963L52.6576 33.3791C52.621 33.367 49.5603 32.3305 45.6216 32.2207C40.5123 32.0866 36.3907 33.5377 33.4032 36.5252Z" fill="#FE7122"/>
<path d="M24.769 18.2092C25.6714 16.7094 26.8664 16.3192 27.7322 16.0265C28.4639 15.7826 28.915 15.6363 29.3418 14.929C29.7686 14.2218 29.6955 13.7584 29.5613 12.9902C29.4028 12.0878 29.1955 10.8562 30.0979 9.35633C31.0002 7.85646 32.1952 7.46624 33.061 7.17359C33.7927 6.9297 34.2439 6.78338 34.6706 6.07612C35.0974 5.36886 35.0243 4.90549 34.8901 4.13726C34.7316 3.23489 34.5243 2.00329 35.4267 0.503418L37.5606 1.7838C37.1339 2.49106 37.207 2.95443 37.3412 3.72266C37.4997 4.62502 37.707 5.85662 36.8046 7.3565C35.9023 8.85637 34.7072 9.24658 33.8414 9.53924C33.1098 9.78312 32.6586 9.92945 32.2318 10.6367C31.805 11.344 31.8782 11.8073 32.0123 12.5756C32.1709 13.4779 32.3782 14.7095 31.4758 16.2094C30.5734 17.7093 29.3784 18.0995 28.5126 18.3922C27.781 18.636 27.3298 18.7824 26.903 19.4896L24.769 18.2092Z" fill="#FE7122"/>
<path d="M35.0615 24.904L33.842 22.7334C35.4151 21.8433 36.6833 22.0993 37.61 22.2944C38.4148 22.453 38.8904 22.5505 39.6708 22.1237C40.439 21.6969 40.6098 21.2336 40.8902 20.4531C41.2073 19.563 41.6585 18.3558 43.2315 17.4656C44.8045 16.5754 46.0727 16.8315 46.9995 17.0144C47.8043 17.1729 48.2798 17.2705 49.0603 16.8437C49.8285 16.4169 49.9992 15.9413 50.2797 15.1731C50.5967 14.2829 51.0479 13.0757 52.6209 12.1855L53.8403 14.3561C53.0721 14.7829 52.9014 15.2585 52.6209 16.0267C52.3039 16.9169 51.8527 18.1241 50.2797 19.0142C48.7066 19.9044 47.4385 19.6483 46.5117 19.4654C45.7069 19.3069 45.2313 19.2093 44.4509 19.6361C43.6827 20.0629 43.512 20.5263 43.2315 21.3067C42.9144 22.1969 42.4633 23.4041 40.8902 24.2943C39.3172 25.1844 38.049 24.9284 37.1223 24.7333C36.3174 24.5626 35.8297 24.465 35.0615 24.904Z" fill="#E35BAD"/>
<path d="M50.8771 25.0628C51.564 25.0628 52.1209 24.5059 52.1209 23.819C52.1209 23.1321 51.564 22.5752 50.8771 22.5752C50.1902 22.5752 49.6333 23.1321 49.6333 23.819C49.6333 24.5059 50.1902 25.0628 50.8771 25.0628Z" fill="#CBB2EB"/>
<path d="M45.3175 39.6214C46.0045 39.6214 46.5613 39.0645 46.5613 38.3776C46.5613 37.6907 46.0045 37.1338 45.3175 37.1338C44.6306 37.1338 44.0737 37.6907 44.0737 38.3776C44.0737 39.0645 44.6306 39.6214 45.3175 39.6214Z" fill="#FFB992"/>
<path d="M56.7914 29.0379C57.4783 29.0379 58.0352 28.481 58.0352 27.7941C58.0352 27.1072 57.4783 26.5503 56.7914 26.5503C56.1045 26.5503 55.5476 27.1072 55.5476 27.7941C55.5476 28.481 56.1045 29.0379 56.7914 29.0379Z" fill="#A684DA"/>
<path d="M46.6342 11.8313C47.3211 11.8313 47.878 11.2745 47.878 10.5875C47.878 9.90062 47.3211 9.34375 46.6342 9.34375C45.9472 9.34375 45.3904 9.90062 45.3904 10.5875C45.3904 11.2745 45.9472 11.8313 46.6342 11.8313Z" fill="#CBB2EB"/>
<path d="M28.2926 2.64922C28.9796 2.64922 29.5364 2.09235 29.5364 1.40542C29.5364 0.718488 28.9796 0.161621 28.2926 0.161621C27.6057 0.161621 27.0488 0.718488 27.0488 1.40542C27.0488 2.09235 27.6057 2.64922 28.2926 2.64922Z" fill="#E35BAD"/>
<path d="M36.9389 13.4173C37.6258 13.4173 38.1827 12.8604 38.1827 12.1735C38.1827 11.4866 37.6258 10.9297 36.9389 10.9297C36.2519 10.9297 35.6951 11.4866 35.6951 12.1735C35.6951 12.8604 36.2519 13.4173 36.9389 13.4173Z" fill="#FE7122"/>
<path d="M27.4887 28.8543C28.1756 28.8543 28.7325 28.2974 28.7325 27.6105C28.7325 26.9236 28.1756 26.3667 27.4887 26.3667C26.8017 26.3667 26.2449 26.9236 26.2449 27.6105C26.2449 28.2974 26.8017 28.8543 27.4887 28.8543Z" fill="#A684DA"/>
<path d="M14.4408 8.56328C15.1277 8.56328 15.6846 8.00641 15.6846 7.31948C15.6846 6.63255 15.1277 6.07568 14.4408 6.07568C13.7539 6.07568 13.197 6.63255 13.197 7.31948C13.197 8.00641 13.7539 8.56328 14.4408 8.56328Z" fill="#F7C9E3"/>
</svg>
