<svg width="21" height="20" viewBox="0 0 21 20" fill="none" xmlns="http://www.w3.org/2000/svg">
<path d="M19.0833 12.5C19.0833 15.725 16.475 18.3333 13.25 18.3333L14.125 16.875" stroke="#2ECC71" stroke-width="1.5" stroke-linecap="round" stroke-linejoin="round"/>
<path d="M2.41667 7.49984C2.41667 4.27484 5.025 1.6665 8.25 1.6665L7.375 3.12484" stroke="#2ECC71" stroke-width="1.5" stroke-linecap="round" stroke-linejoin="round"/>
<path d="M19.0833 3.49984V3.5915C19.0833 3.82484 18.9 4.00817 18.6667 4.00817H11.1667C10.9333 4.00817 10.75 3.82484 10.75 3.5915V3.49984C10.75 2.03317 11.1167 1.6665 12.6 1.6665H17.2333C18.7167 1.6665 19.0833 2.03317 19.0833 3.49984Z" fill="#2ECC71"/>
<path d="M11.1667 4.8418C10.9333 4.8418 10.75 5.02513 10.75 5.25846V6.0918V6.9168C10.75 8.38346 11.1167 8.75013 12.6 8.75013H17.2333C18.7167 8.75013 19.0833 8.38346 19.0833 6.9168V6.0918V5.25846C19.0833 5.02513 18.9 4.8418 18.6667 4.8418H11.1667Z" fill="#2ECC71"/>
<path d="M10.75 13.0833V13.175C10.75 13.4083 10.5667 13.5917 10.3333 13.5917H2.83333C2.6 13.5917 2.41667 13.4083 2.41667 13.175V13.0833C2.41667 11.6167 2.78333 11.25 4.26667 11.25H8.9C10.3833 11.25 10.75 11.6167 10.75 13.0833Z" fill="#2ECC71"/>
<path d="M2.83333 14.4248C2.6 14.4248 2.41667 14.6081 2.41667 14.8415V15.6748V16.4998C2.41667 17.9665 2.78333 18.3331 4.26667 18.3331H8.9C10.3833 18.3331 10.75 17.9665 10.75 16.4998V15.6748V14.8415C10.75 14.6081 10.5667 14.4248 10.3333 14.4248H2.83333Z" fill="#2ECC71"/>
</svg>
