<svg width="16" height="16" viewBox="0 0 16 16" fill="none" xmlns="http://www.w3.org/2000/svg">
<path d="M8 3.09961C4.81333 3.09961 2.22 5.69294 2.22 8.87961C2.22 12.0663 4.81333 14.6663 8 14.6663C11.1867 14.6663 13.78 12.0729 13.78 8.88628C13.78 5.69961 11.1867 3.09961 8 3.09961ZM8.5 8.66628C8.5 8.93961 8.27334 9.16628 8 9.16628C7.72667 9.16628 7.5 8.93961 7.5 8.66628V5.33294C7.5 5.05961 7.72667 4.83294 8 4.83294C8.27334 4.83294 8.5 5.05961 8.5 5.33294V8.66628Z" fill="#EDA12F"/>
<path d="M9.92643 2.29967H6.0731C5.80643 2.29967 5.5931 2.08634 5.5931 1.81967C5.5931 1.55301 5.80643 1.33301 6.0731 1.33301H9.92643C10.1931 1.33301 10.4064 1.54634 10.4064 1.81301C10.4064 2.07967 10.1931 2.29967 9.92643 2.29967Z" fill="#EDA12F"/>
</svg>
