<svg width="17" height="18" viewBox="0 0 17 18" fill="none" xmlns="http://www.w3.org/2000/svg">
<path d="M10.7334 0.907179C10.8046 0.574607 10.6432 0.235712 10.34 0.0815249C10.0368 -0.0726625 9.66787 -0.0035371 9.44108 0.249936L0.941082 9.74994C0.743853 9.97037 0.694603 10.2861 0.815334 10.5562C0.936065 10.8262 1.20423 11 1.50001 11H8.07227L6.76666 17.0929C6.6954 17.4255 6.85685 17.7644 7.16002 17.9185C7.46318 18.0727 7.83215 18.0036 8.05894 17.7501L16.5589 8.25013C16.7562 8.0297 16.8054 7.71393 16.6847 7.4439C16.564 7.17388 16.2958 7.00003 16 7.00003H9.42775L10.7334 0.907179Z" fill="#2ECC71"/>
</svg>
